<?xml version="1.0" encoding="utf-8"?>
<!-- Generator: Adobe Illustrator 19.0.0, SVG Export Plug-In . SVG Version: 6.00 Build 0)  -->
<svg version="1.1" id="Isolation_Mode" xmlns="http://www.w3.org/2000/svg" xmlns:xlink="http://www.w3.org/1999/xlink" x="0px"
	 y="0px" viewBox="0 0 1161.5 916.1" style="enable-background:new 0 0 1161.5 916.1;" xml:space="preserve">
<style type="text/css">
	.st0{fill:#1C75BC;}
	.st1{fill:#27AAE1;}
</style>
<g>
	<path class="st0" d="M1033.6,546.2C970.5,695,844.3,815.8,677.4,866.4c-220,66.6-449.2-7.6-590.5-170.8
		c72-39.8,164.7-119.8,196.7-275.6c55.2-268.1,282.5-490,570-378.4C853.7,41.5,1164.1,166.6,1033.6,546.2z"/>
	<path d="M916.3,206.9c-4.8,16.3-22,25.6-38.3,20.8c-16.3-4.8-25.6-21.9-20.8-38.3c4.8-16.3,21.9-25.6,38.3-20.8
		C911.8,173.5,921.1,190.6,916.3,206.9"/>
	<polygon points="1018.1,201.5 1089.8,222.9 1161.5,244.3 1107.2,295.7 1052.7,347.1 	"/>
	<path class="st1" d="M586.2,239.7C459.2,200.3,237.6,440.1,0,328.7c195.5,389.8,525.6,392.8,661.9,309.2
		C798.3,554.4,823.9,285.6,586.2,239.7"/>
</g>
</svg>
