<?xml version="1.0" encoding="utf-8"?>
<!-- Generator: Adobe Illustrator 19.0.0, SVG Export Plug-In . SVG Version: 6.00 Build 0)  -->
<svg version="1.1" id="Isolation_Mode" xmlns="http://www.w3.org/2000/svg" xmlns:xlink="http://www.w3.org/1999/xlink" x="0px"
	 y="0px" viewBox="0 0 189 117.4" style="enable-background:new 0 0 189 117.4;" xml:space="preserve">
<style type="text/css">
	.st0{fill:#EDEEEF;}
	.st1{fill:#FFFFFF;}
</style>
<path class="st0" d="M167.9,53.4c-3.7-6.7-10.5-11.4-18.4-12.2c0.5-2.1,0.8-4.4,0.8-6.7c0-14.8-12-26.9-26.9-26.9
	c-13,0-23.8,9.2-26.3,21.4c-1.9-0.5-4-0.8-6.1-0.8c-3.2,0-6.3,0.7-9.1,1.8C77.8,23.4,70.4,19,61.9,19c-13.1,0-23.7,10.6-23.7,23.7
	c0,1,0.1,2,0.2,3c-0.1,0-0.1,0-0.2,0c-7.6,0-14.2,4.5-17.3,11c-0.6-0.1-1.2-0.1-1.9-0.1C8.6,56.5,0,65.1,0,75.6
	c0,10.6,8.6,19.1,19.1,19.1c2.9,0,5.6-0.6,8-1.8c3.5,4.9,9.2,8.2,15.7,8.2c2.9,0,5.6-0.6,8-1.8c3.5,4.9,9.2,8.2,15.7,8.2
	c6.8,0,12.8-3.6,16.2-9c4.1,7.1,11.8,11.8,20.5,11.8c9.4,0,17.5-5.5,21.4-13.4c4.4,5.3,11,8.8,18.4,8.8c7.3,0,13.9-3.3,18.3-8.6
	c1.8,0.4,3.6,0.7,5.5,0.7c12.3,0,22.3-10,22.3-22.3C189,63.7,179.7,54,167.9,53.4z"/>
<path class="st1" d="M167.9,45.8c-3.7-6.7-10.5-11.4-18.4-12.2c0.5-2.1,0.8-4.4,0.8-6.7c0-14.8-12-26.9-26.9-26.9
	c-13,0-23.8,9.2-26.3,21.4c-1.9-0.5-4-0.8-6.1-0.8c-3.2,0-6.3,0.7-9.1,1.8c-4.2-6.7-11.6-11.1-20-11.1c-13.1,0-23.7,10.6-23.7,23.7
	c0,1,0.1,2,0.2,3c-0.1,0-0.1,0-0.2,0C30.6,38,24,42.5,21,49c-0.6-0.1-1.2-0.1-1.9-0.1C8.6,48.9,0,57.4,0,68
	c0,10.6,8.6,19.1,19.1,19.1c2.9,0,5.6-0.6,8-1.8c3.5,4.9,9.2,8.2,15.7,8.2c2.9,0,5.6-0.6,8-1.8c3.5,4.9,9.2,8.2,15.7,8.2
	c6.8,0,12.8-3.6,16.2-9c4.1,7.1,11.8,11.8,20.5,11.8c9.4,0,17.5-5.5,21.4-13.4c4.4,5.3,11,8.8,18.4,8.8c7.3,0,13.9-3.3,18.3-8.6
	c1.8,0.4,3.6,0.7,5.5,0.7c12.3,0,22.3-10,22.3-22.3C189,56.1,179.7,46.4,167.9,45.8z"/>
</svg>
