<?xml version="1.0" encoding="utf-8"?>
<!-- Generator: Adobe Illustrator 19.0.0, SVG Export Plug-In . SVG Version: 6.00 Build 0)  -->
<svg version="1.1" id="Isolation_Mode" xmlns="http://www.w3.org/2000/svg" xmlns:xlink="http://www.w3.org/1999/xlink" x="0px"
	 y="0px" viewBox="0 0 161.3 114.6" style="enable-background:new 0 0 161.3 114.6;" xml:space="preserve">
<style type="text/css">
	.st0{fill:#EDEEEF;}
	.st1{fill:#FFFFFF;}
</style>
<g>
	<path class="st0" d="M143.8,51.7c-0.3-13.3-11.2-24-24.6-24c-2.7,0-5.3,0.4-7.7,1.2C108.9,16.7,98,7.5,84.9,7.5
		c-11.2,0-20.8,6.8-24.9,16.4c-2-0.5-4-0.8-6.1-0.8c-13.4,0-24.3,10.8-24.6,24.1c-15.3,0.2-27.6,12.7-27.6,28c0,15.5,12.6,28,28,28
		c3.7,0,7.3-0.7,10.6-2.1c4.1,7.9,12.3,13.3,21.9,13.3c9.5,0,17.7-5.4,21.8-13.3c4.1,7.9,12.3,13.3,21.8,13.3c10.5,0,19.5-6.6,23-16
		c2.4,0.8,5,1.3,7.8,1.3c13.6,0,24.6-11,24.6-24.6C161.3,64.2,153.9,54.8,143.8,51.7z"/>
	<path class="st1" d="M142,44.3c-0.3-13.3-11.2-24-24.6-24c-2.7,0-5.3,0.4-7.7,1.2C107.1,9.2,96.2,0,83.2,0C72,0,62.4,6.8,58.3,16.4
		c-2-0.5-4-0.8-6.1-0.8c-13.4,0-24.3,10.8-24.6,24.1C12.3,40,0,52.5,0,67.8c0,15.5,12.6,28,28,28c3.7,0,7.3-0.7,10.6-2.1
		c4.1,7.9,12.3,13.3,21.9,13.3c9.5,0,17.7-5.4,21.8-13.3c4.1,7.9,12.3,13.3,21.8,13.3c10.5,0,19.5-6.6,23-16c2.4,0.8,5,1.3,7.8,1.3
		c13.6,0,24.6-11,24.6-24.6C159.5,56.7,152.1,47.3,142,44.3z"/>
</g>
</svg>
