<?xml version="1.0" encoding="utf-8"?>
<!-- Generator: Adobe Illustrator 19.0.0, SVG Export Plug-In . SVG Version: 6.00 Build 0)  -->
<svg version="1.1" id="Isolation_Mode" xmlns="http://www.w3.org/2000/svg" xmlns:xlink="http://www.w3.org/1999/xlink" x="0px"
	 y="0px" viewBox="0 0 279 157" style="enable-background:new 0 0 279 157;" xml:space="preserve">
<style type="text/css">
	.st0{fill:#EDEEEF;}
	.st1{fill:#FFFFFF;}
</style>
<path class="st0" d="M252.9,90.4C252.9,90.4,252.9,90.4,252.9,90.4c0-12.5-10-22.5-22.4-22.5c-0.9,0-1.7,0.1-2.6,0.2
	c-1.4-14-13.2-24.9-27.6-24.9c-10.2,0-19.1,5.5-23.9,13.7c-4.5-5-11-8.1-18.2-8.1c-13.1,0-23.8,10.3-24.5,23.2
	c-8.1,4.9-13.6,13.8-13.6,24c0,0,0,0.1,0,0.1c-10.4,1.1-18.6,9.9-18.6,20.6c0,11.4,9.3,20.7,20.7,20.7c3.9,0,7.6-1.1,10.7-3
	c3.7,6.9,11,11.5,19.3,11.5c4.1,0,7.9-1.1,11.2-3.1c6.5,6.3,15.4,10.1,25.2,10.1c9.8,0,18.6-3.9,25.2-10.1c3.3,1.9,7.1,3.1,11.2,3.1
	c8,0,15.1-4.3,18.9-10.8c2.2,0.7,4.6,1.1,7.1,1.1c12.7,0,23-10.3,23-23C274.1,101.3,264.8,91.4,252.9,90.4z"/>
<path class="st1" d="M252.9,82.9C252.9,82.9,252.9,82.9,252.9,82.9c0-12.5-10-22.5-22.4-22.5c-0.9,0-1.7,0.1-2.6,0.2
	c-1.4-14-13.2-24.9-27.6-24.9c-10.2,0-19.1,5.5-23.9,13.7c-4.5-5-11-8.1-18.2-8.1c-13.1,0-23.8,10.3-24.5,23.2
	c-8.1,4.9-13.6,13.8-13.6,24c0,0,0,0.1,0,0.1c-10.4,1.1-18.6,9.9-18.6,20.6c0,11.4,9.3,20.7,20.7,20.7c3.9,0,7.6-1.1,10.7-3
	c3.7,6.9,11,11.5,19.3,11.5c4.1,0,7.9-1.1,11.2-3.1c6.5,6.3,15.4,10.1,25.2,10.1c9.8,0,18.6-3.9,25.2-10.1c3.3,1.9,7.1,3.1,11.2,3.1
	c8,0,15.1-4.3,18.9-10.8c2.2,0.7,4.6,1.1,7.1,1.1c12.7,0,23-10.3,23-23C274.1,93.8,264.8,83.9,252.9,82.9z"/>
<path class="st0" d="M139.7,53.4c-1.4-10.3-10.3-18.3-21-18.3c-2.1,0-4.1,0.3-6.1,0.9C108,22.3,95.1,12.4,79.9,12.4
	c-15.1,0-27.9,9.7-32.5,23.2c-1.9-0.3-3.8-0.5-5.8-0.5c-19,0-34.4,15.4-34.4,34.4c0,19,15.4,34.4,34.4,34.4c8.3,0,15.9-2.9,21.8-7.8
	c3.9,4.8,9.8,7.8,16.5,7.8c7.3,0,13.7-3.7,17.5-9.2c3.8,3.5,8.8,5.6,14.4,5.6c6.3,0,11.9-2.7,15.8-7c3,1.7,6.5,2.6,10.3,2.6
	c11.7,0,21.2-9.5,21.2-21.2C159.2,63.4,150.6,54.3,139.7,53.4z"/>
<path class="st1" d="M139.7,47.1c-1.4-10.3-10.3-18.3-21-18.3c-2.1,0-4.1,0.3-6.1,0.9C108,15.9,95.1,6,79.9,6
	c-15.1,0-27.9,9.7-32.5,23.2c-1.9-0.3-3.8-0.5-5.8-0.5c-19,0-34.4,15.4-34.4,34.4c0,19,15.4,34.4,34.4,34.4c8.3,0,15.9-2.9,21.8-7.8
	c3.9,4.8,9.8,7.8,16.5,7.8c7.3,0,13.7-3.7,17.5-9.2c3.8,3.5,8.8,5.6,14.4,5.6c6.3,0,11.9-2.7,15.8-7c3,1.7,6.5,2.6,10.3,2.6
	c11.7,0,21.2-9.5,21.2-21.2C159.2,57.1,150.6,47.9,139.7,47.1z"/>
</svg>
