<?xml version="1.0" encoding="utf-8"?>
<!-- Generator: Adobe Illustrator 19.0.0, SVG Export Plug-In . SVG Version: 6.00 Build 0)  -->
<svg version="1.1" id="Isolation_Mode" xmlns="http://www.w3.org/2000/svg" xmlns:xlink="http://www.w3.org/1999/xlink" x="0px"
	 y="0px" viewBox="0 0 254 147.7" style="enable-background:new 0 0 254 147.7;" xml:space="preserve">
<style type="text/css">
	.st0{fill:#EDEEEF;}
	.st1{fill:#FFFFFF;}
</style>
<g>
	<path class="st0" d="M35.2,82.9c3,0,5.8,0.4,8.5,1.3C48,73.3,58.5,65.7,70.9,65.7c9.9,0,18.6,4.9,23.8,12.4
		c3.5-1.5,7.4-2.3,11.4-2.3c11.5,0,21.5,6.7,26.2,16.4c1-0.1,1.9-0.2,2.9-0.2c11.1,0,20.1,9,20.1,20.2c0,10-7.2,18.2-16.8,19.8
		c-3.1,7.2-10.2,12.2-18.5,12.2c-4.8,0-9.1-1.7-12.6-4.4c-3.5,2.8-7.8,4.4-12.6,4.4c-4.3,0-8.2-1.3-11.5-3.6
		c-5.1,4.5-11.8,7.2-19.1,7.2c-7.7,0-14.8-3-20-8c-2.9,1-6,1.5-9.2,1.5c-16.1,0-29.1-13-29.1-29.1C6.1,96,19.1,82.9,35.2,82.9z"/>
	<path class="st1" d="M35.2,75.4c3,0,5.8,0.4,8.5,1.3C48,65.9,58.5,58.2,70.9,58.2c9.9,0,18.6,4.9,23.8,12.4
		c3.5-1.5,7.4-2.3,11.4-2.3c11.5,0,21.5,6.7,26.2,16.4c1-0.1,1.9-0.2,2.9-0.2c11.1,0,20.1,9,20.1,20.2c0,10-7.2,18.2-16.8,19.8
		c-3.1,7.2-10.2,12.2-18.5,12.2c-4.8,0-9.1-1.7-12.6-4.4c-3.5,2.8-7.8,4.4-12.6,4.4c-4.3,0-8.2-1.3-11.5-3.6
		c-5.1,4.5-11.8,7.2-19.1,7.2c-7.7,0-14.8-3-20-8c-2.9,1-6,1.5-9.2,1.5c-16.1,0-29.1-13-29.1-29.1C6.1,88.5,19.1,75.4,35.2,75.4z"/>
	<path class="st0" d="M114.8,44.7c0.3,0,0.5,0,0.7,0c4.4-3.8,10.1-6.2,16.4-6.2c1,0,1.9,0.1,2.8,0.2c6-15.1,20.7-25.8,37.9-25.8
		c17.4,0,32.2,10.9,38.1,26.2c9.1,1.9,16.4,8.7,18.9,17.6c11.3,1,20.1,10.4,20.1,21.9c0,12.2-9.9,22-22,22c-4.8,0-9.2-1.6-12.8-4.2
		c-4.6,6.2-11.9,10.3-20.2,10.3c-5,0-9.7-1.5-13.7-4.1c-3.8,2.3-8.2,3.7-13,3.7c-6.2,0-11.9-2.3-16.2-6.1c-3.6,2-7.8,3.2-12.2,3.2
		c-8,0-15-3.7-19.6-9.6c-1.7,0.4-3.5,0.6-5.3,0.6c-13.7,0-24.9-11.1-24.9-24.9C89.9,55.8,101.1,44.7,114.8,44.7z"/>
	<path class="st1" d="M114.8,37.2c0.3,0,0.5,0,0.7,0c4.4-3.8,10.1-6.2,16.4-6.2c1,0,1.9,0.1,2.8,0.2c6-15.1,20.7-25.8,37.9-25.8
		c17.4,0,32.2,10.9,38.1,26.2c9.1,1.9,16.4,8.7,18.9,17.6c11.3,1,20.1,10.4,20.1,21.9c0,12.2-9.9,22-22,22c-4.8,0-9.2-1.6-12.8-4.2
		c-4.6,6.2-11.9,10.3-20.2,10.3c-5,0-9.7-1.5-13.7-4.1c-3.8,2.3-8.2,3.7-13,3.7c-6.2,0-11.9-2.3-16.2-6.1c-3.6,2-7.8,3.2-12.2,3.2
		c-8,0-15-3.7-19.6-9.6c-1.7,0.4-3.5,0.6-5.3,0.6c-13.7,0-24.9-11.1-24.9-24.9C89.9,48.4,101.1,37.2,114.8,37.2z"/>
</g>
</svg>
