<?xml version="1.0" encoding="utf-8"?>
<!-- Generator: Adobe Illustrator 19.0.0, SVG Export Plug-In . SVG Version: 6.00 Build 0)  -->
<svg version="1.1" id="Isolation_Mode" xmlns="http://www.w3.org/2000/svg" xmlns:xlink="http://www.w3.org/1999/xlink" x="0px"
	 y="0px" viewBox="0 0 1152 893" style="enable-background:new 0 0 1152 893;" xml:space="preserve">
<style type="text/css">
	.st0{fill:#3EB549;}
	.st1{fill:#A6CE39;}
</style>
<g>
	<path class="st0" d="M1046.9,509.2c-51.9,153.1-168.8,283-331.4,345.8C501.1,937.8,267.1,880.8,114,728.5
		c68.9-45,155.3-131.7,175.7-289.4C324.8,167.6,534.9-70.6,830,19.3C830,19.3,1148.8,121,1046.9,509.2z"/>
	<path d="M904.7,179.6c-3.6,16.6-20,27.2-36.6,23.6c-16.6-3.6-27.2-20-23.6-36.6c3.6-16.6,20-27.2,36.6-23.6
		C897.7,146.6,908.3,163,904.7,179.6"/>
	<polygon points="1005.9,166.6 1078.9,182.7 1152,198.7 1101.6,254 1051.2,309.2 	"/>
	<path class="st1" d="M577.9,236.9C448.4,207,245.2,462.5,0,369.1c223.9,374.2,553.3,352.6,683.1,259.1
		C812.9,534.9,818.5,265,577.9,236.9"/>
</g>
</svg>
