<?xml version="1.0" encoding="utf-8"?>
<!-- Generator: Adobe Illustrator 19.0.0, SVG Export Plug-In . SVG Version: 6.00 Build 0)  -->
<svg version="1.1" id="Isolation_Mode" xmlns="http://www.w3.org/2000/svg" xmlns:xlink="http://www.w3.org/1999/xlink" x="0px"
	 y="0px" viewBox="0 0 1164.1 870.7" style="enable-background:new 0 0 1164.1 870.7;" xml:space="preserve">
<style type="text/css">
	.st0{fill:#F99D1C;}
	.st1{fill:#FFD200;}
</style>
<g>
	<path class="st0" d="M140.6,548c69.4,146,200.6,261.4,369.5,304.8C732.7,910,958.5,826.1,1092.8,657
		c-73.6-36.7-169.6-112.7-208.2-267C818,124.6,581.5-87.5,299,36.2C299,36.2-5.9,174.4,140.6,548z"/>
	<path d="M243.4,204.1c5.5,16.1,23,24.7,39.1,19.2c16.1-5.5,24.7-23,19.2-39.1c-5.5-16.1-23-24.6-39.1-19.1
		C246.5,170.5,237.9,188,243.4,204.1"/>
	<polygon points="141.4,203 70.7,227.4 0,251.9 56.5,300.9 113,349.9 	"/>
	<path class="st1" d="M574.6,222.9c125.1-44.7,356.8,185.4,589.4,64c-178.7,397.7-508.4,414.7-648.2,337
		C376,546.2,339,278.8,574.6,222.9"/>
</g>
</svg>
